<svg width="17" height="17" viewBox="0 0 17 17" fill="none" xmlns="http://www.w3.org/2000/svg">
<rect width="17" height="17" rx="8.5" fill="#FBF5E2"/>
<path d="M11.2265 6.55752V8.38052C11.2265 9.47078 10.6035 9.93804 9.66901 9.93804H6.55752C6.39823 9.93804 6.24601 9.92388 6.10442 9.89202C6.01593 9.87786 5.93097 9.85308 5.85309 9.82476C5.32212 9.62653 5 9.16636 5 8.38052V6.55752C5 5.46726 5.62301 5 6.55752 5H9.66901C10.4619 5 11.0318 5.33628 11.1841 6.10442C11.2088 6.24601 11.2265 6.39115 11.2265 6.55752Z" stroke="#F0D17D" stroke-width="0.530972" stroke-miterlimit="10" stroke-linecap="round" stroke-linejoin="round"/>
<path d="M12.2885 7.61947V9.44247C12.2885 10.5327 11.6655 11 10.731 11H7.61953C7.35759 11 7.12042 10.9646 6.91511 10.8867C6.49387 10.731 6.20715 10.4088 6.10449 9.89203C6.24608 9.92389 6.3983 9.93805 6.55759 9.93805H9.66908C10.6036 9.93805 11.2266 9.47079 11.2266 8.38053V6.55753C11.2266 6.39116 11.2124 6.24248 11.1841 6.10443C11.8567 6.24602 12.2885 6.72036 12.2885 7.61947Z" stroke="#F0D17D" stroke-width="0.530972" stroke-miterlimit="10" stroke-linecap="round" stroke-linejoin="round"/>
<path d="M6.08643 6.69207V8.24959M10.1367 6.69207V8.24959M8.11049 8.40534C8.35834 8.40534 8.59603 8.30688 8.77129 8.13163C8.94654 7.95637 9.045 7.71867 9.045 7.47083C9.045 7.22298 8.94654 6.98528 8.77129 6.81003C8.59603 6.63477 8.35834 6.53632 8.11049 6.53632C7.86264 6.53632 7.62495 6.63477 7.44969 6.81003C7.27444 6.98528 7.17598 7.22298 7.17598 7.47083C7.17598 7.71867 7.27444 7.95637 7.44969 8.13163C7.62495 8.30688 7.86264 8.40534 8.11049 8.40534Z" stroke="#E5F062" stroke-width="0.530972" stroke-miterlimit="10" stroke-linecap="round" stroke-linejoin="round"/>
</svg>
