<svg width="17" height="17" viewBox="0 0 17 17" fill="none" xmlns="http://www.w3.org/2000/svg">
<rect width="17" height="17" rx="8.5" fill="#DAF6FC"/>
<path d="M10.5835 7.43694V6.51107C10.5835 6.14667 10.4369 6 10.0725 6H9.14661C8.78221 6 8.63554 6.14667 8.63554 6.51107V7.43694C8.63554 7.80133 8.78221 7.94801 9.14661 7.94801H10.0725C10.4369 7.94801 10.5835 7.80133 10.5835 7.43694ZM7.94801 7.49424V6.45377C7.94801 6.13063 7.80133 6 7.43694 6H6.51107C6.14667 6 6 6.13063 6 6.45377V7.49195C6 7.81738 6.14667 7.94572 6.51107 7.94572H7.43694C7.80133 7.94801 7.94801 7.81738 7.94801 7.49424ZM7.94801 10.0725V9.14661C7.94801 8.78221 7.80133 8.63554 7.43694 8.63554H6.51107C6.14667 8.63554 6 8.78221 6 9.14661V10.0725C6 10.4369 6.14667 10.5835 6.51107 10.5835H7.43694C7.80133 10.5835 7.94801 10.4369 7.94801 10.0725Z" stroke="#59D1F2" stroke-width="0.485317" stroke-linecap="round" stroke-linejoin="round"/>
<path d="M8.86475 9.55225H10.2398M9.55228 10.2398V8.86472" stroke="#59D1F2" stroke-width="0.485317" stroke-linecap="round"/>
</svg>
