<svg width="17" height="17" viewBox="0 0 17 17" fill="none" xmlns="http://www.w3.org/2000/svg">
<rect width="17" height="17" rx="8.5" fill="#FEEEEF"/>
<path d="M11.7834 7.92644V9.38864C11.7834 10.266 11.205 10.8508 10.3375 10.8508H7.44584C6.57834 10.8508 6 10.266 6 9.38864V7.92644C6 7.131 6.47424 6.57536 7.21161 6.48178C7.2868 6.47008 7.36487 6.46423 7.44584 6.46423H10.3375C10.4127 6.46423 10.485 6.46716 10.5544 6.47886C11.3005 6.56659 11.7834 7.12515 11.7834 7.92644Z" stroke="#E7B6BC" stroke-width="0.400199" stroke-linecap="round" stroke-linejoin="round"/>
<path d="M11.8508 8.07062H10.9833C10.6652 8.07062 10.4049 8.33382 10.4049 8.6555C10.4049 8.97719 10.6652 9.24039 10.9833 9.24039H11.8508M10.6221 6.47682C10.5527 6.46512 10.4804 6.46219 10.4052 6.46219H7.51352C7.43256 6.46219 7.35448 6.46804 7.2793 6.47974C7.31978 6.39786 7.37761 6.32182 7.44701 6.25164L8.38681 5.29828C8.57767 5.10719 8.83538 5 9.10395 5C9.37251 5 9.63023 5.10719 9.82108 5.29828L10.3271 5.8159C10.5122 6.00014 10.6105 6.23409 10.6221 6.47682Z" stroke="#E7B6BC" stroke-width="0.400199" stroke-linecap="round" stroke-linejoin="round"/>
</svg>
